<?xml version="1.0" encoding="UTF-8"?>
<svg version="1.1" viewBox="0 0 1600 320" width="1280" height="1280" xmlns="http://www.w3.org/2000/svg">
<path transform="translate(1)" d="m0 0 324 1v318h-323c-0.799-3.99-1.13-7.1-1.13-11.1-0.00282-1.23-0.00564-2.45-0.00854-3.72 0.00194-1.35 0.00399-2.7 0.00613-4.05-0.00136-1.43-0.00314-2.86-0.00531-4.29-0.00456-3.88-0.00279-7.76 3.79e-4 -11.6 0.00254-4.07 1.82e-4 -8.14-0.00139-12.2-0.00182-6.84 5.77e-4 -13.7 0.00534-20.5 0.00543-7.88 0.00369-15.8-0.00183-23.7-0.00456-6.78-0.00517-13.6-0.00256-20.4 0.00155-4.04 0.00179-8.09-0.00154-12.1-0.00291-3.81-8.39e-4 -7.62 0.00489-11.4 0.00131-1.39 9.65e-4 -2.78-0.00126-4.17-0.0121-8.3 0.292-16.5 1.13-24.7h-2c-0.0587-3.19-0.0938-6.37-0.125-9.56-0.0168-0.895-0.0335-1.79-0.0508-2.71-0.039-5.33 0.421-9.69 2.18-14.7h-2c-0.0247-4.4-0.0428-8.79-0.0549-13.2-0.00504-1.5-0.0119-2.99-0.0205-4.49-0.0121-2.15-0.0178-4.29-0.0222-6.44-0.00524-1.29-0.0105-2.59-0.0159-3.92 0.114-2.96 0.114-2.96 1.11-3.96 0.124-2.24 0.178-4.48 0.205-6.72 0.0099-0.702 0.0198-1.4 0.03-2.13 0.0317-2.33 0.0564-4.66 0.0811-7 0.0206-1.61 0.0416-3.23 0.063-4.84 0.0553-4.25 0.105-8.51 0.153-12.8 0.0502-4.34 0.106-8.67 0.161-13 0.108-8.51 0.209-17 0.307-25.5h-2c-0.0269-1.81-0.0463-3.62-0.0625-5.44l-0.0352-3.06c0.0977-2.5 0.0977-2.5 1.1-3.5v-12zm18 22c-0.291 2.86-0.396 5.5-0.367 8.36-0.00327 0.863-0.00654 1.73-0.00991 2.61-0.00731 2.9 0.0069 5.8 0.021 8.71-7.91e-4 2.08-0.00289 4.15-0.0062 6.23-0.00514 5.65 0.00842 11.3 0.0255 16.9 0.015 5.9 0.0139 11.8 0.0147 17.7 0.0037 9.91 0.0187 19.8 0.0412 29.7 0.0289 12.7 0.0392 25.5 0.0437 38.2 0.00398 10.9 0.0165 21.9 0.0303 32.8 0.0041 3.52 0.00703 7.04 0.0098 10.6 0.00488 5.52 0.0151 11 0.0294 16.6 0.00453 2.03 0.00736 4.07 0.00841 6.1 0.00174 2.76 0.0096 5.53 0.0191 8.29-8.66e-4 0.813-0.00173 1.63-0.00263 2.46-0.0702 4.01-0.0702 4.01 1.14 7.77h89v-40c2.95-7.87 4.23-10.8 11-15 4.57-2.05 9.21-3.57 14-5l2.87-0.902c21.1-6.02 43.2-5.61 63.1 3.9 3.62 2.06 6.86 4.26 10 7 1.01 0.64 1.01 0.64 2.04 1.29 3.24 2.43 5.55 4.65 6.37 8.75 0.572 6.1 0.272 12.2 0.0284 18.3-0.0723 2.78-0.133 5.56-0.192 8.34-0.0406 1.72-0.0914 3.45-0.153 5.17-0.276 4.19-0.276 4.19 0.908 8.12h89c0.0451-27.9 0.082-55.7 0.104-83.6 0.0103-12.9 0.0244-25.9 0.0473-38.8 0.0199-11.3 0.0328-22.5 0.0373-33.8 0.00261-5.97 0.00878-11.9 0.0233-17.9 0.0135-5.62 0.0178-11.2 0.0148-16.8 5.53e-4 -2.07 0.00456-4.13 0.0122-6.2 0.00988-2.81 0.00758-5.62 0.0021-8.43 0.00583-0.827 0.0117-1.65 0.0177-2.51 0.155-4.4 0.155-4.4-2.26-7.86-2.15-0.304-2.15-0.304-4.67-0.254-0.991-0.00583-1.98-0.0117-3-0.0177-1.65 0.00567-1.65 0.00567-3.32 0.0115-1.74-0.00574-1.74-0.00574-3.51-0.0116-3.23-0.00856-6.46-0.00809-9.68-0.00382-3.48 0.00246-6.95-0.00654-10.4-0.014-6.82-0.0128-13.6-0.0145-20.4-0.0122-5.54 0.00178-11.1 3.98e-5 -16.6-0.00422-0.787-5.95e-4 -1.57-0.00119-2.39-0.0018-1.6-0.00121-3.2-0.00243-4.8-0.00364-15-0.0109-30-0.00871-45-0.00262-13.7 0.00517-27.5-0.00609-41.2-0.0251-14.1-0.0194-28.2-0.0276-42.3-0.0239-7.92 0.00192-15.8-6.11e-4 -23.8-0.0147-6.74-0.0119-13.5-0.0134-20.2-0.00121-3.44 0.00591-6.88 0.00693-10.3-5e-3 -3.73-0.0104-7.45-0.00244-11.2 0.0103-1.09-0.00737-2.19-0.0147-3.32-0.0223-1.49 0.0108-1.49 0.0108-3.01 0.0218-0.861-5.5e-5 -1.72-1.1e-4 -2.61-1.67e-4 -2.71 0.464-3.6 1.15-5.19 3.37zm-18 75v30h1v-30h-1zm0 38v19h1v-19h-1zm19 119c-0.872 5.17-0.872 5.17-1.13 10.2-0.00315 0.777-0.0063 1.55-0.00955 2.35 0.00202 0.819 0.00405 1.64 0.00613 2.48-9.57e-4 0.855-0.00191 1.71-0.0029 2.59-6.78e-4 1.8 0.00115 3.59 0.00534 5.39 0.00539 2.76 2.38e-5 5.52-0.00635 8.28 6.6e-4 1.75 0.00194 3.49 0.00391 5.24-0.00202 0.829-0.00405 1.66-0.00613 2.51-0.349 3.76-0.349 3.76 1.14 6.91 2.15 0.0878 4.29 0.107 6.44 0.0977 1.31-0.00322 2.61-0.00645 3.96-0.00977 1.39-0.00836 2.78-0.0168 4.17-0.0254 1.39-0.00501 2.79-0.00958 4.18-0.0137 3.42-0.0118 6.84-0.0298 10.3-0.0488v-27h57v6l-2 1c0.138 3.15 0.287 6.29 0.438 9.44 0.0393 0.898 0.0786 1.8 0.119 2.72 0.0419 0.854 0.0838 1.71 0.127 2.59 0.0367 0.791 0.0733 1.58 0.111 2.4 0.011 1.87 0.011 1.87 1.21 2.86 2.22 0.0878 4.44 0.107 6.66 0.0977 0.664-0.00141 1.33-0.00283 2.01-0.00429 2.13-0.00561 4.26-0.0182 6.39-0.0309 1.44-0.00501 2.88-0.00958 4.32-0.0137 3.54-0.0102 7.08-0.0298 10.6-0.0488v-27h56v6l-2 1c0.138 3.15 0.287 6.29 0.438 9.44 0.0393 0.898 0.0786 1.8 0.119 2.72 0.0628 1.28 0.0628 1.28 0.127 2.59 0.0367 0.791 0.0733 1.58 0.111 2.4 0.011 1.87 0.011 1.87 1.21 2.86 2.22 0.0878 4.44 0.107 6.66 0.0977 0.664-0.00141 1.33-0.00283 2.01-0.00429 2.13-0.00561 4.26-0.0182 6.39-0.0309 1.44-0.00501 2.88-0.00958 4.32-0.0137 3.54-0.0102 7.08-0.0298 10.6-0.0488v-27h57v6l-2 1c0.138 3.15 0.287 6.29 0.438 9.44 0.0393 0.898 0.0786 1.8 0.119 2.72 0.0419 0.854 0.0838 1.71 0.127 2.59 0.0367 0.791 0.0733 1.58 0.111 2.4 0.011 1.87 0.011 1.87 1.21 2.86 2.15 0.0878 4.29 0.107 6.44 0.0977 1.18-0.0025 2.35-5e-3 3.56-0.00757 1.5-0.0091 3.01-0.0182 4.56-0.0276 7.15-0.0309 7.15-0.0309 14.4-0.0625v-46h-288z" fill="#FBFCFE"/>
<path transform="translate(490,75)" d="m0 0c3.44 4.25 3.69 9.04 3.55 14.4-0.781 3.76-2.45 5.32-5.43 7.61-3.82 1.84-6.83 2.43-10.9 1.13-0.936-0.449-1.87-0.897-2.84-1.36-11.2-4.96-23.1-8.11-35.2-4.56-4.86 1.91-8.95 4.17-11.2 9.14-0.75 2.21-1.41 4.41-1.97 6.68 8.8 9.94 21.8 12.9 34.1 16.5 0.875 0.254 1.75 0.508 2.65 0.77 1.7 0.49 3.4 0.971 5.11 1.44 8.91 2.56 18.5 6.75 23.5 14.9 1.62 3.44 1.62 3.44 0.625 6.44 0.33 0.66 0.66 1.32 1 2 1.32 14.8-0.586 25-9.81 36.9-9.39 9.91-23.3 16.9-37 17.5-2.02 0.0234-4.05 0.0242-6.07 0.00391-1.59-0.0114-1.59-0.0114-3.21-0.0229-12.4-0.262-22.3-3.49-31.6-11.9-3.85-4.42-4.02-8.95-3.75-14.7 0.611-4.17 1.3-5.95 4.41-8.82 5.68-0.652 8.51 0.517 13.1 3.75 11.2 7.37 22.6 9.58 35.9 8.25 6.8-1.47 13.8-4.21 18-10 1.49-4 1.06-7.51 0.562-11.7-2.13-4.52-5.18-6.23-9.56-8.31-5.64-1.91-11.4-3.4-17.1-4.9-13-3.42-28.3-7.79-36.4-19.3-3.73-6.46-4.66-12.5-3.48-19.8 2.35-7.38 6.5-13.8 11-20 0.577-0.866 1.15-1.73 1.75-2.62 16.7-17.6 49.6-23.5 70.2-9.38zm0 68 1 2z" fill="#F6F7F9"/>
<path transform="translate(976 78.4)" d="m0 0c1.8 1.72 2.59 3.32 3.63 5.56l2 2c4.36 7.56 5.5 14.4 5.44 22.9 0.02 0.938 0.04 1.88 0.0605 2.84-0.00859 12.4-6.38 21.6-14.6 30.5-8.81 8.38-20.2 14-32.5 14.1-1.28 0.0284-2.56 0.0567-3.88 0.0859-4.12-0.534-5.7-1.49-8.56-4.46-2.19-4.09-2.22-8.07-1.12-12.5 0.371-1.16 0.742-2.31 1.12-3.5 4.06-1.07 6.9-0.697 11 0 9.4 0.722 17.6-0.936 25-7 4.57-6.05 5.59-10.6 5-18-0.843-5.61-2.1-9.8-6.62-13.4-10.8-6.87-23.4-6.96-35.8-4.88-3.64 0.899-3.64 0.899-4.74 3.44-0.985 3.43-1.32 6.65-1.61 10.2-0.0584 0.701-0.117 1.4-0.177 2.13-0.188 2.26-0.365 4.53-0.542 6.8-0.252 3.11-0.51 6.22-0.77 9.34-0.0933 1.13-0.0933 1.13-0.189 2.28-0.424 5.03-1.01 10-1.73 15-1.54 11.9-0.978 24.1-0.812 36.1h2c1.47 1.79 1.47 1.79 3.06 4.19 0.527 0.777 1.05 1.55 1.6 2.36 2.03 3.72 2.56 6.36 1.71 10.5-2.07 4.41-4.76 6.2-9.12 8.19-4.76 1.1-9.53 1.53-14.3 0.172-3.1-2.23-4.78-4.87-5.98-8.42-0.238-3.5 0.168-6.84 0.625-10.3 0.16-1.44 0.16-1.44 0.324-2.91 0.33-2.93 0.69-5.86 1.05-8.78 0.295-2.57 0.581-5.15 0.865-7.73 0.169-1.52 0.343-3.03 0.524-4.55 0.342-2.9 0.611-5.73 0.603-8.66 0.00781-2.07 0.00781-2.07 1.01-3.07 0.895-5.63 1.12-11.1 1.06-16.8-0.00379-0.803-0.00757-1.61-0.0115-2.43-0.0121-2.54-0.0307-5.07-0.051-7.61-0.0266-3.36-0.0466-6.72-0.0625-10.1-0.0083-0.769-0.0166-1.54-0.0251-2.33-0.0148-3.2 0.0674-5.72 1.09-8.78l-2 1c-2 0.04-4 0.0435-6 0-1.51-4.97-2.81-9.35-0.562-14.2 7.07-11.6 21.1-15.5 33.6-18.8 17.4-3.43 35-1.25 49.4 9.44zm-53.4 112 1 2z" fill="#F5F6F8"/>
<path transform="translate(1302,65)" d="m0 0c3.1 2.3 5.48 4.62 6.88 8.31 0.0412 0.887 0.0825 1.77 0.125 2.69 0.049 0.728 0.098 1.46 0.148 2.21 0.261 6.22 0.261 6.22-1.42 8.58-2.55 1.79-4.75 1.11-7.7 0.633-2.04-0.422-2.04-0.422-3.83-0.953-3.2-0.68-6.31-0.68-9.58-0.719-1.93-0.0387-1.93-0.0387-3.9-0.0781-4.98 0.438-8.27 1.92-11.9 5.39-2.61 4.09-4.23 8.38-5.88 12.9-0.303 0.816-0.606 1.63-0.918 2.47-1.44 4.04-2.23 7.19-2.08 11.5 0.854-0.069 0.854-0.069 1.72-0.139 2.61-0.201 5.22-0.375 7.84-0.548 0.895-0.0728 1.79-0.146 2.71-0.221 5.82-0.362 9.56 0.153 14.7 2.91v4c0.0619 1.28 0.124 2.56 0.188 3.88 0.00749 4.02-1.06 6.68-3.19 10.1-2 2-2 2-4.4 2.01-1.47-0.16-1.47-0.16-2.98-0.324-1.06-0.108-2.13-0.217-3.23-0.328-1.68-0.178-1.68-0.178-3.4-0.359-2.25-0.193-4.5-0.381-6.75-0.562-1.75-0.146-3.5-0.291-5.25-0.438-2.05 13.3-2.31 26.5-2.26 40 0.0107 3.5 4.56e-5 7-0.0127 10.5-0.00704 12.3 0.48 24.3 2.27 36.5 0.458 3.38 0.507 5.57 0 9-2.95 3.79-6.25 6.17-11 7-1.52 0.137-3.04 0.219-4.56 0.25-1.15 0.0387-1.15 0.0387-2.32 0.0781-2.73-0.423-3.47-1.13-5.12-3.33-2-3.84-2.15-6.6-1.69-10.9 0.108-1.06 0.217-2.11 0.328-3.2 0.271-2.21 0.586-4.41 0.922-6.61 0.46-3.48 0.473-6.79 0.375-10.3 0.0625-2.02 0.0625-2.02 1.06-5.02 0.183-2.96 0.325-5.91 0.438-8.88 0.302-6.9 0.975-13.6 2.16-20.4 0.536-3.63 0.475-7.09 0.406-10.8 0.495-0.99 0.495-0.99 1-2 0.0309-2.99-0.0673-5.97-0.16-8.96 0.164-3.12 0.838-5.24 2.16-8.04-0.66-0.33-1.32-0.66-2-1h2v-4c-5.94 0.495-5.94 0.495-12 1-2.21-3.32-2.32-4.61-2.38-8.5-0.0284-0.959-0.0567-1.92-0.0859-2.91 0.461-2.59 0.461-2.59 2.27-4.36 4.28-2.4 8.33-3.23 13.2-3.23 0.821-3.18 1.02-6.05 0.938-9.31-0.0367-4.47 0.776-8.42 2.06-12.7 0.28-1.01 0.559-2.03 0.848-3.07 3.84-13.4 9.29-23.8 21.7-30.7 10.1-5.06 21.7-4.87 31.4 0.777z" fill="#F7F8FA"/>
<path transform="translate(595 123)" d="m0 0c2.97 3.14 3.47 6.7 3.57 10.9-0.133 1.66-0.133 1.66-0.27 3.36-0.0761 1.12-0.152 2.24-0.23 3.39-0.609 3.06-1.01 4.2-3.58 5.93-2.69-0.312-2.69-0.312-5-1-0.821 6.6-1.27 13.1-1.38 19.8-0.0374 0.919-0.0748 1.84-0.113 2.79-0.0587 4.51-0.0512 6.73 2.68 10.4 3.42 2.46 6.84 4.06 10.7 5.71 2.11 1.31 2.11 1.31 2.97 3.4 0.0464 0.63 0.0928 1.26 0.141 1.91-0.33 0.33-0.66 0.66-1 1-0.0825 0.887-0.165 1.77-0.25 2.69-0.988 4.36-2.68 6.09-5.75 9.31-4.64 2.32-11.4 1.87-16.2 0.27-5.63-3.4-7.17-9.19-8.79-15.3-0.352-1.66-0.691-3.33-1-5-0.528 0.744-0.528 0.744-1.07 1.5-6.49 8.94-13 16.1-23.9 19.5-3.09 0.452-6.13 0.595-9.25 0.625-0.744 0.0109-1.49 0.0218-2.26 0.033-6.82-0.175-12-2.55-17.2-6.91-2.43-2.89-4.38-5.84-6.3-9.08-0.907-1.64-0.907-1.64-2.02-2.67-2.21-15.7 0.0634-30.1 9.47-43.1 10.2-13.4 22.5-22.2 39.3-25.5 12.7-1.67 25.7-0.78 36.8 5.99zm-63.5 25.6c-4.1 5.74-6.28 11.3-6.12 18.3 0.018 1.07 0.0361 2.14 0.0547 3.24 0.0232 0.808 0.0464 1.62 0.0703 2.45h2c0.557 0.908 1.11 1.82 1.69 2.75 2.64 3.71 5 5.88 9.31 7.25 7.46 1.01 13.8 0.48 20-4 9.96-7.62 13.4-18.9 15.7-30.8 0.306-2.86 0.314-4.58-0.652-7.25-15.3-5.07-30.6-4.81-42 8z" fill="#F9FAFC"/>
<path transform="translate(698,120)" d="m0 0c3.92 3.23 5.68 7.16 7 12l1 2c0.516 9.43 0.351 18.1-2.24 27.3-2.4 8.14-2.4 8.14-0.504 16.1 3.62 4.39 7.67 7.19 12.7 9.68-0.114 4.66-0.277 8.68-3.25 12.4-3.93 3.66-6.24 4.41-11.6 4.94-4.73-0.169-8.43-1.48-12.2-4.38-4.45-5-6.46-9.28-7-16 0.514-7.45 2.04-14.5 4.33-21.6 1.65-6.02 2.67-13.4 0.668-19.4-4.17-2.65-8.22-2.53-13-2-10.8 3.59-16.2 11.3-21.2 21.2-0.726 1.49-1.44 2.98-2.16 4.47-0.337 0.704-0.675 1.41-1.02 2.13-2.97 6.43-4.79 12.6-4.91 19.7-0.441 5.77-2.53 9.56-6.75 13.5-2.95 1.86-5.16 2.25-8.62 2.19-0.776-0.00645-1.55-0.0129-2.35-0.0195-2.02-0.168-2.02-0.168-4.02-1.17-1.68-3.8-0.512-7.49 0.312-11.4 0.284-1.45 0.567-2.9 0.848-4.35 0.506-2.58 1.01-5.16 1.52-7.73 1.22-7.08 1.4-13.8 1.07-21-0.0383-0.841-0.0767-1.68-0.116-2.55-0.446-8.93-0.446-8.93-4.95-16.3-1.78-1.16-3.59-2.26-5.44-3.31-2.25-1.44-2.25-1.44-3.25-4.44 2.05-6.5 4.98-9.57 10.8-13.1 2.66-1.09 4.79-1.18 7.65-1.2 0.938-0.0168 1.88-0.0335 2.84-0.0508 3.09 0.423 4.44 1.19 6.66 3.36 0.688 3 0.688 3 1 6 0.33 0.99 0.66 1.98 1 3 0.0701 1.62 0.0844 3.23 0.0625 4.85-0.00773 0.933-0.0155 1.87-0.0234 2.83-0.0193 1.46-0.0193 1.46-0.0391 2.95-0.0254 1.93-0.0465 3.86-0.0625 5.79-0.0116 0.855-0.0232 1.71-0.0352 2.59-0.126 1.99-0.126 1.99 1.1 2.99 0.257-0.499 0.513-0.998 0.777-1.51 7.32-13.7 15.8-27.3 31.2-32.5 7.39-2.15 15.1-1.56 22 2zm-57 35 1 2z" fill="#F8F9FB"/>
<path transform="translate(806 121)" d="m0 0c2.82 3.98 3.03 7.28 3.12 12 0.0387 1.24 0.0773 2.48 0.117 3.75 0.192 8.85-0.641 17.1-2.7 25.7-1.62 6.72-1.62 6.72-1.42 13.6 2.59 3.12 4.17 4.62 8.12 5.45 6.98 0.363 11.9-1.87 17.1-6.34 10.4-10.4 16.7-25.5 17.1-40.2 0.427-5.67 1.66-9.81 5.69-13.9 4.35-2.53 7.97-3.67 13-3 2.38 1.5 2.38 1.5 4 3-0.33 0.66-0.66 1.32-1 2v1c-0.965 6.38-2.14 12.7-3.5 19-1.24 6.14-2.13 12.3-2.81 18.5-0.101 0.837-0.201 1.67-0.305 2.54-0.526 5.2-0.285 9.07 1.62 14 1.83 1.33 1.83 1.33 4 2 0.619 0.495 1.24 0.99 1.88 1.5 2.57 1.82 5.12 2.61 8.12 3.5 1.42 5.3 0.68 8.24-2 13-3.45 3.87-5.81 5.27-10.9 6-4.94 0.238-7.88-0.323-12.1-3-3.3-4.27-5.05-8.87-5.32-14.2-0.0419-0.802-0.0838-1.6-0.127-2.43-0.0393-0.833-0.0786-1.67-0.119-2.53-0.0648-1.27-0.0648-1.27-0.131-2.56-0.106-2.08-0.207-4.17-0.307-6.25-0.413 0.822-0.825 1.64-1.25 2.49-5.91 11.4-11.8 20.7-23.8 26.5-1.14 0.561-1.14 0.561-2.31 1.13-6.71 2.16-16.8 2.2-23.3-0.57-5.05-3.28-8.51-7.52-9.79-13.5-1.47-9.84-0.446-18 2.47-27.4 1.5-5.77 1.98-11.7 0.941-17.6-2.56-3.84-5.06-5.7-9-8v-2c-0.66-0.33-1.32-0.66-2-1 2.8-7.06 6.21-10.5 13-14 5.14-1.66 9.41-1.11 13.9 2zm71.1 68 1 2z" fill="#FAFBFD"/>
<path transform="translate(1062,125)" d="m0 0c3.54 3 5.96 5.4 7 10 0.495 0.557 0.99 1.11 1.5 1.69 5.05 7.78 3.43 23.4 2.5 32.3-2.41 11.2-9.74 21.1-18.8 27.9-11.5 7.34-22.8 8.52-36.2 7.12-6.93-1.53-13.1-4.88-17.2-10.8-1.75-2.89-2.75-4.82-2.75-8.23h-2c-0.388-3-0.706-5.99-1-9-0.124-1.2-0.247-2.39-0.375-3.62 0.027-6.61 3.13-13.2 5.38-19.4-0.66-0.33-1.32-0.66-2-1 1.49-0.495 1.49-0.495 3-1 0.33-0.66 0.66-1.32 1-2-0.784 0.186-1.57 0.371-2.38 0.562-2.62 0.438-2.62 0.438-4.62-0.562-1.76-5.27-1.88-10.1 0.5-15.2 15.6-17.6 47.2-24.1 66.5-8.81zm-43 17c-5.07 7.82-7.18 14.5-7.06 23.8 0.00451 0.697 0.00902 1.39 0.0137 2.11 0.0117 1.71 0.0297 3.42 0.0488 5.14h2c1.3 1.43 1.3 1.43 2.75 3.31 4.23 5.02 8.14 6.7 14.6 7.5 9.16 0.57 15.5-1.92 22.6-7.81 5.34-6.09 5.43-12.6 5.27-20.3-0.366-4.93-1.05-6.96-4.27-10.7-2.28-1.7-4.39-2.76-7-4-0.737-0.358-1.47-0.717-2.23-1.09-6.96-2.3-21-3.07-26.8 2.09z" fill="#FAFBFD"/>
<path transform="translate(1560 124)" d="m0 0c3.95 3.36 7.32 6.72 8.98 11.7v4c1.18 4.62 1.18 4.62 3 9 1.21 16.2-1.82 29.3-12.7 41.9-7.41 7.84-16.5 12.9-27.4 13.6-11.5 0.294-20.8-0.319-29.9-8.18-7.19-7.56-8.26-17.3-8.05-27.3 0.952-5.95 2.7-11.4 5-17-0.66-0.33-1.32-0.66-2-1 0.495-0.495 0.495-0.495 1-1-1.32-0.33-2.64-0.66-4-1-1.8-5.72-2.71-9.37 0-15 15.3-17.8 46.5-23.9 66-9.68zm-43.7 19.3c-4.52 7.62-8.39 18.4-6.33 27.4 3.15 5.9 8.87 9.67 15 12 7.34 1.74 14.2 1.32 21-2 4.5-3.11 9-6.82 11-12 1.15-6.67 2.35-14.8-1.05-20.9-3.89-5.18-8.67-7.74-14.9-9.09-13.3-1.25-13.3-1.25-24.7 4.62z" fill="#FAFBFD"/>
<path transform="translate(1363 125)" d="m0 0c4.27 3.42 5.89 5.1 6.84 10.5 0.96 2.27 2 4.49 3.06 6.72 3.97 9.67 3.4 23.6-0.0625 33.3-5.74 12.6-14.2 21.8-26.9 27.5-10.2 3.29-24.5 3.56-34.2-1.3-5.64-3.54-9.01-7.17-11.9-13.2v-3h-2c-1.89-10.8 0.0225-21.6 3-32h2v-3c-1.98-0.33-3.96-0.66-6-1-1.68-5.04-2.33-10.2 0.0352-15.2 7.02-9.07 19.8-14.4 30.8-16.4 12.7-1.59 24.8-0.622 35.3 7.12zm-42.2 17.5c-4.32 6.36-7.01 13.4-8 21-0.186 1.18-0.371 2.35-0.562 3.56 0.971 5.94 4.98 9.24 9.42 13 5.9 4.23 12.2 4.85 19.3 4.23 6.86-1.31 12.6-5.4 17.3-10.4 2.81-6.07 4.34-13 3.06-19.7-2.42-5.95-5.69-10-11.4-13.1-7.38-2.91-22.8-4.21-29.1 1.44z" fill="#FBFCFE"/>
<path transform="translate(755 119)" d="m0 0c2.06 1.69 2.06 1.69 3.06 4.69v2c0.242 1.11 0.242 1.11 0.49 2.25 0.996 5.37 0.702 10.9 0.698 16.3-2.72e-4 0.659-5.44e-4 1.32-8.24e-4 2-0.0496 26.4-1.81 52.3-10.2 77.4-0.392 1.18-0.784 2.35-1.19 3.57-4.31 12-10.5 22.9-21.8 29.6-6.25 2.76-13.4 3.09-19.8 0.895-4.65-2.17-8.98-4.28-11.2-9.05-0.765-6.47-0.911-11.6 3-17 2.31-1.94 2.31-1.94 5-3 3.28 0.684 5.5 1.63 8.19 3.62 4.48 2.19 8.92 1.9 13.8 1.38 4.94-1.79 6.83-5.43 9-10 0.95-2.8 1.62-5.62 2.25-8.5 0.173-0.721 0.345-1.44 0.523-2.18 1.03-4.53 1.3-8.65 1.23-13.3 0.495-1.49 0.495-1.49 1-3 0.0913-1.48 0.128-2.96 0.129-4.44 0.00473-1.34 0.00473-1.34 0.00955-2.71-0.00202-0.966-0.00405-1.93-0.00613-2.93 9.57e-4 -0.998 0.00191-2 0.0029-3.02 6.81e-4 -2.11-0.00117-4.23-0.00534-6.34-0.00532-3.22-6.66e-5 -6.43 0.00635-9.65-6.61e-4 -2.06-0.00194-4.11-0.00391-6.17 0.00202-0.955 0.00405-1.91 0.00613-2.9 0.38-9.6 0.38-9.6-2.89-18.2-2.23-1.78-2.23-1.78-4.94-3-2.31-1.69-2.31-1.69-3.5-4.94 0.227-4.54 1.36-6.06 4.43-9.24 6.2-5.33 15.1-7.6 22.7-4.2zm-14.9 46.7v6h1v-6h-1z" fill="#FAFBFD"/>
<path transform="translate(1194,103)" d="m0 0c0.495 7.92 0.495 7.92 1 16 2.31-0.66 4.62-1.32 7-2 3.61-0.336 3.61-0.336 7.19-0.375 1.19-0.0284 2.38-0.0567 3.61-0.0859 3.76 0.54 4.88 1.54 7.21 4.46-0.33 0.66-0.66 1.32-1 2 0.0313 1.58 0.0988 3.17 0.188 4.75 0.0158 3.64-0.256 5.41-1.69 8.88-2.5 2.38-2.5 2.38-6.06 2.59-4.67-0.141-9.3-0.652-13.9-1.21-1.23-0.143-1.23-0.143-2.49-0.289-2-0.233-4.01-0.471-6.01-0.711-0.0898 0.896-0.0898 0.896-0.181 1.81-0.416 3.98-0.875 7.81-1.88 11.7-1.58 7.38-1.09 15-0.938 22.5h2c0.227 0.784 0.454 1.57 0.688 2.38 1.07 2.78 1.07 2.78 3.56 3.81 0.908 0.268 1.82 0.536 2.75 0.812 0.846 0.351 1.69 0.701 2.56 1.06 4.25 1.16 8.34 1.37 12.7 1.59 2.71 0.344 2.71 0.344 5.71 2.34-0.186 4.27-0.438 7.92-2.44 11.8-7.86 6.9-15.5 8.15-25.6 7.67-6.29-0.672-9.85-2.26-14.3-6.86-2.27-3.58-3.62-6.29-3.62-10.6h-2c-1.88-11.5-0.747-23.3 1.59-34.7 0.56-3.16 0.553-6.11 0.41-9.32h2v-4c-0.743 0.248-0.743 0.248-1.5 0.5-3.53 0.707-6.9 0.56-10.5 0.5-1.19-1.5-1.19-1.5-2-4 3.44-14 15.7-25.7 27.5-33.1 2.46-0.898 2.46-0.898 8.46 0.102z" fill="#F9FAFC"/>
<path transform="translate(182,101)" d="m0 0c5.94 4.5 10 9.66 11.7 17 0.133 1.33 0.231 2.67 0.312 4 0.0761 1.06 0.152 2.12 0.23 3.21 0.41 10.2-1.57 17.1-8.54 24.7-7.05 6.51-14.7 8.46-24.1 8.34-10.3-0.856-17.4-6.38-24-14-1.97-2.72-2.64-4.9-2.64-8.26h-2c-2.83-5.65-0.608-12.7 1.09-18.4 2.66-7.64 7.22-14.3 14.6-17.9 11.2-4.17 22.5-4.14 33.3 1.33zm8 12 1 2z" fill="#F7F8FA"/>
<path transform="translate(126,38)" d="m0 0h152v19h-151c-2.84-5.67-1-12.7-1-19z" fill="#EEEFF1"/>
<path transform="translate(1411,61)" d="m0 0c1.75 2.06 1.75 2.06 3 5 0.496 1.04 0.993 2.08 1.5 3.15 1.74 4.08 2.28 8.02 2.68 12.4 0.0797 0.816 0.159 1.63 0.241 2.47 1.16 13.2 0.857 26.5 0.134 39.8-0.0586 1.08-0.0586 1.08-0.118 2.17-0.317 4.89-0.317 4.89-1.44 6.01-0.288 2.2-0.516 4.41-0.719 6.62-0.0628 0.662-0.126 1.32-0.19 2.01-0.201 2.12-0.397 4.25-0.591 6.37-0.255 2.79-0.516 5.58-0.781 8.38-0.171 1.87-0.171 1.87-0.346 3.77-0.373 2.85-0.373 2.85-1.37 3.85-0.125 1.6-0.176 3.21-0.188 4.81-0.0213 1.31-0.0213 1.31-0.043 2.64 0.513 5.66 4.37 9.64 8.23 13.5 2.69 1.9 2.69 1.9 5 3-1.11 9.85-1.11 9.85-4.81 13-5.81 3.64-10.4 4.8-17.2 4-3.08-1.27-4.59-2.55-6.81-5-1.85-4.66-1.44-9.04-1.19-14 0.0657-1.28 0.131-2.56 0.199-3.88 0.58-10 0.58-10 1.27-13.5 0.819-4.11 1.18-8.25 1.59-12.4 0.136-1.28 0.136-1.28 0.275-2.59 0.428-4.24 0.705-8.4 0.658-12.7 0.00391-3.98 0.00391-3.98 1-5.98 0.0282-1.74-0.0118-3.47-0.0859-5.21-0.043-1.06-0.086-2.11-0.13-3.2-0.0524-1.12-0.105-2.25-0.159-3.41-0.0511-1.14-0.102-2.28-0.155-3.45-0.15-3.25-0.309-6.49-0.47-9.74-0.0503-1.13-0.0503-1.13-0.102-2.29-0.416-9.23-2.12-17-6.09-25.4-1.8-3.94-2.49-6.93-1.81-11.3 3.74-6.71 11.5-10.3 19-9zm-10 75 1 2z" fill="#F8F9FB"/>
<path transform="translate(1154,121)" d="m0 0c1.03 13.8 1.03 13.8-2.69 18.3-1.91 1.77-3.44 2.75-5.81 3.88-2.5-0.188-2.5-0.188-5.38-2.19-3.01-2.31-3.01-2.31-6.69-2.06-4.34 1.34-5.71 2.4-8.44 6.06-4.17 8.41-6.09 15.8-6.18 25.2-0.0232 1.37-0.0473 2.73-0.0723 4.1-0.0351 2.13-0.0645 4.25-0.0779 6.38-0.0155 2.07-0.0558 4.14-0.0999 6.21-0.0146 1.23-0.0292 2.46-0.0442 3.72-0.786 5.09-3.56 9.16-7.53 12.4-2.78 0.926-4.68 1.19-7.56 1.25-0.785 0.0258-1.57 0.0516-2.38 0.0781-0.679-0.108-1.36-0.217-2.06-0.328-3.07-4.61-1.53-9.34-0.498-14.5 1.52-7.92 1.81-15.7 1.76-23.7-0.0108-2.15 1.96e-5 -4.29 0.0127-6.44-0.00132-1.38-0.00388-2.77-0.00781-4.15-0.00226-1.23-0.00451-2.47-0.00684-3.74-0.261-3.46-1.07-6.18-2.26-9.43v-2c-0.722-0.268-1.44-0.536-2.19-0.812-7.25-3.06-7.25-3.06-8.81-6.19 2.11-6.22 5.12-9.55 10.1-13.8 4.57-1.89 9.01-1.83 13.9-1.19 3.12 1.56 3.12 1.56 5 4 0.75 3.44 0.75 3.44 1 7 0.32 1.67 0.647 3.34 1 5 2.26-2.15 4.07-4.4 5.88-6.94 8.11-10.9 18.7-12.9 30.1-6.06zm-53 32v23h1v-23h-1z" fill="#FAFBFC"/>
<path transform="translate(1466 119)" d="m0 0c2.97 4.02 2.84 7.74 2.94 12.6 0.0754 1.37 0.0754 1.37 0.152 2.77 0.298 9.1-1.07 17.9-2.4 26.9-0.521 3.61-1.02 7.22-1.44 10.8-0.0954 0.799-0.191 1.6-0.289 2.42-0.19 2.29-0.19 2.29 1.41 4.83 3.38 2.96 6.89 5.66 10.6 8.25-0.138 5.52-2.48 8.43-6.11 12.3-4.08 3.67-8.65 4.11-13.9 3.96-3.97-0.515-6.83-2.25-9.77-4.88-5.15-10.3-0.998-24.6 2.13-35 2.15-7.44 3.06-16.2-0.316-23.4-1.95-1.59-3.93-2.71-6.14-3.9-1.86-1.1-1.86-1.1-3.61-3.48-0.379-3.98 1.4-6.59 3.75-9.62 6.43-6.1 14.7-8.36 23.1-4.62z" fill="#F9FAFC"/>
<path transform="translate(53.5 37.9)" d="m0 0c1.56 1.59e-4 3.12 0.00585 4.68 0.0159 1.23 0.00212 1.23 0.00212 2.48 0.00429 2.63 0.00562 5.26 0.0182 7.89 0.0309 1.78 0.00501 3.56 0.00958 5.33 0.0137 4.37 0.011 8.74 0.0283 13.1 0.0488-0.33 0.66-0.66 1.32-1 2v17h-36c-1.2-3.59-1.15-6.89-1.12-10.6-0.00387-0.694-0.00773-1.39-0.0117-2.1 0.0122-6.24 0.0122-6.24 4.65-6.39z" fill="#EEEFF1"/>
<path transform="translate(1467 73.2)" d="m0 0c2.84 1.89 3.44 2.64 4.62 5.75 0.617 4.66 1.07 9.69-0.945 14-2.5 3.18-5.12 5.17-9.05 5.95-5.01 0.132-8.78-0.185-13-3-2.6-3.91-3.96-7.27-4-12 1.15-4.07 2.99-7.05 6.06-9.94 5.36-2.94 10.7-2.88 16.3-0.812z" fill="#EDEEF0"/>
<path transform="translate(755 73)" d="m0 0c3 2.28 3.78 4.05 4.44 7.75 0.43 5.28 0.174 9.59-2.57 14.2-3.47 3.18-6.02 3.95-10.7 4.38-4.67-0.41-7.98-1.61-11.2-5.09-2.49-4.1-1.95-8.6-1.36-13.2 1.79-3.85 3.26-5.5 6.75-7.88 5.27-1.82 9.3-1.7 14.6-0.125z" fill="#EDEEF0"/>
<path transform="translate(218,233)" d="m0 0c0.33 0.66 0.66 1.32 1 2h89c-0.33 1.65-0.66 3.3-1 5-11.3 0.0463-22.6 0.0818-33.9 0.104-5.25 0.0105-10.5 0.0246-15.8 0.0473-5.06 0.0217-10.1 0.0337-15.2 0.0389-1.94 0.00371-3.87 0.0109-5.81 0.0217-2.7 0.0144-5.41 0.0165-8.11 0.0156-0.806 0.00719-1.61 0.0144-2.44 0.0218-5.54-0.0207-5.54-0.0207-7.77-2.25-0.125-2.62-0.125-2.62 0-5z" fill="#000001"/>
<path transform="translate(19,233)" d="m0 0c0.33 0.66 0.66 1.32 1 2h89c-0.33 1.65-0.66 3.3-1 5-11.2 0.0463-22.3 0.0819-33.5 0.104-5.18 0.0104-10.4 0.0246-15.5 0.0473-5 0.0217-10 0.0337-15 0.0389-1.91 0.0037-3.82 0.0109-5.73 0.0217-2.67 0.0145-5.34 0.0165-8.01 0.0156-0.793 0.00719-1.59 0.0144-2.4 0.0218-3.82-0.0144-5.58-0.0784-8.83-2.25-0.188-2.62-0.188-2.62 0-5z" fill="#000001"/>
<path transform="translate(210,184)" d="m0 0c3.1 2.91 6.09 5.9 9 9-0.495 1.49-0.495 1.49-1 3-0.799-0.797-1.6-1.59-2.42-2.41-8.75-8.52-17.5-14.7-29.6-17.6-0.953-0.338-1.91-0.675-2.89-1.02-5.58-1.6-11.4-1.36-17.1-1.35-1.2 1.61e-4 -2.41 3.22e-4 -3.65 4.88e-4 -9.13 0.117-16.7 1.43-25.4 4.37-1.56 0.315-3.12 0.61-4.69 0.875-8.34 1.78-16.2 6.31-22.3 12.1 1.37-5.66 5.31-8.92 10-12 4.56-2.06 9.21-3.58 14-5 0.969-0.298 1.94-0.596 2.94-0.902 24.3-6.78 53.1-6.29 73.1 10.9z" fill="#000001"/>
<path transform="translate(222,273)" d="m0 0h57v6h-57v-6z" fill="#000001"/>
<path transform="translate(49,273)" d="m0 0h57v6h-57v-6z" fill="#000001"/>
<path transform="translate(136,273)" d="m0 0h56v6h-56v-6z" fill="#000001"/>
<path transform="translate(409 169)" d="m0 0c4.45 0.346 6.32 1.51 9.95 4.05 11.2 7.37 22.6 9.58 35.9 8.25 7.48-1.64 13.2-5.04 19-10-1.55 4.94-4.12 8.47-8.78 10.9-6.4 2.79-11.5 3.27-18.3 3.3-1.37 0.0309-1.37 0.0309-2.77 0.0625-9.32 0.0531-15.9-2.18-23.6-7.5-5.64-3.61-8.88-4.79-15.5-3.81l-2 1c2.28-5.93 2.28-5.93 6.18-6.3z" fill="#000001"/>
<path transform="translate(191,299)" d="m0 0c10.2 0.33 20.5 0.66 31 1v6c-2.76 2.76-11.2 1.19-14.9 1.19-1.31 0.0122-2.63 0.0245-3.98 0.0371-1.25 0.00193-2.5 0.00387-3.79 0.00586-1.73 0.00616-1.73 0.00616-3.5 0.0125-2.78-0.243-2.78-0.243-4.78-2.24v-6z" fill="#000001"/>
<path transform="translate(105,299)" d="m0 0c10.2 0.33 20.5 0.66 31 1v6c-1.77 1.77-4.29 1.13-6.68 1.13-1.73 0.00193-1.73 0.00193-3.5 0.00391-1.22-0.00387-2.44-0.00773-3.69-0.0117-1.21 0.00387-2.42 0.00773-3.67 0.0117-1.74-0.00193-1.74-0.00193-3.51-0.00391-1.07-0.00113-2.13-0.00226-3.23-0.00342-2.71-0.129-2.71-0.129-5.71-1.13-0.33-2.31-0.66-4.62-1-7z" fill="#000001"/>
<path transform="translate(278,299)" d="m0 0c9.9 0.33 19.8 0.66 30 1v6c-2.7 2.7-10.8 1.19-14.4 1.19-1.27 0.0122-2.53 0.0245-3.84 0.0371-1.21 0.00193-2.41 0.00387-3.66 0.00586-1.67 0.00616-1.67 0.00616-3.38 0.0125-2.69-0.243-2.69-0.243-4.69-2.24v-6z" fill="#000001"/>
<path transform="translate(19,299)" d="m0 0c9.9 0.33 19.8 0.66 30 1v6c-2.65 2.65-10.3 1.23-13.9 1.25-1.82 0.0309-1.82 0.0309-3.67 0.0625-1.16 0.00516-2.32 0.0103-3.51 0.0156-1.07 0.00935-2.13 0.0187-3.23 0.0283-2.71-0.356-2.71-0.356-4.58-1.56-1.13-1.79-1.13-1.79-1.13-6.79z" fill="#000001"/>
<path transform="translate(595 124)" d="m0 0c2.23 2.15 2.9 4.41 3.46 7.41-0.401-0.398-0.802-0.797-1.21-1.21-4.6-4.29-8.79-6.1-14.8-7.79-0.66-0.33-1.32-0.66-2-1-18.1-1.44-33.7 0.0881-48.8 11-2.52 2.24-4.9 4.58-7.25 7 0-3 0-3 1.7-5.02 17.4-16 47.6-25.1 68.8-10.4z" fill="#000001"/>
<path transform="translate(1363 125)" d="m0 0c2.1 1.7 4.05 3.47 5.85 5.5-0.33 0.66-0.66 1.32-1 2-0.949-0.907-1.9-1.81-2.88-2.75-10.8-9.27-25.6-9.11-39.1-8.25-9.33 1.43-19.1 6.58-26 13-0.33 0.66-0.66 1.32-1 2-0.66-0.33-1.32-0.66-2-1 6.88-10 19.1-15.4 30.8-17.6 12.7-1.59 24.8-0.592 35.3 7.11z" fill="#000001"/>
<path transform="translate(1560 125)" d="m0 0c2.1 1.7 4.05 3.47 5.85 5.5-0.33 0.66-0.66 1.32-1 2-0.436-0.398-0.871-0.797-1.32-1.21-11.6-10.3-24-10.9-38.9-10.1-11.5 1.21-22.1 7.95-30.8 15.3 3.85-8.54 12.7-12.6 21-16 15.1-4.92 31.9-5.14 45.2 4.5z" fill="#000001"/>
<path transform="translate(1060 124)" d="m0 0c1.52 1.28 1.52 1.28 3.52 4.28-2.65-1.01-5.13-2.07-7.62-3.44-13.6-6.31-28.3-5.31-42.4-0.562-6.55 3-12.5 6.37-18 11 3.48-7.98 12.2-11.4 19.8-14.7 14.3-5.59 31.6-5.13 44.7 3.46z" fill="#000001"/>
<path transform="translate(733,227)" d="m0 0c1 3 1 3-0.562 6.5-2.24 3.62-4.32 5.15-8.44 6.5-6.9 0.98-11.3-1.18-17-5-4.25-0.309-7.36-0.33-11 2 0.561-3.26 1.33-5 4-7 2.86-0.892 4.33-1.32 7.07-0.00391 1.02 0.713 1.02 0.713 2.05 1.44 5.25 3.15 9.88 3.44 15.9 2.56 3.81-1.59 5.75-3.57 8-7z" fill="#000001"/>
<path transform="translate(427,109)" d="m0 0c0.413 0.387 0.825 0.773 1.25 1.17 0.577 0.521 1.15 1.04 1.75 1.58 0.835 0.766 0.835 0.766 1.69 1.55 7.14 5.26 15.3 7.34 23.7 9.7 21.2 6 21.2 6 28.6 11 0.722 0.474 1.44 0.949 2.19 1.44 1.97 1.7 2.82 3.17 3.81 5.56-3.72-1.67-3.72-1.67-5.16-3.39-2.78-2.43-6.1-3.4-9.53-4.61-1.38-0.5-2.76-1-4.14-1.5-0.688-0.245-1.38-0.489-2.08-0.741-2.11-0.765-4.2-1.58-6.29-2.4-2.98-1.12-5.75-1.79-8.93-2.18-9.23-1.55-19.3-5.29-25.9-12.2-1.38-2.31-1.38-2.31-2-4 0.33-0.33 0.66-0.66 1-1z" fill="#000001"/>
<path transform="translate(1315,171)" d="m0 0c0.557 0.743 1.11 1.49 1.69 2.25 4.66 5.55 9.33 8.8 16.6 9.5 8.72 0.626 14.8-1.56 21.8-6.75 2.4-2.14 2.4-2.14 4-4-0.721 4.86-3.29 7.73-7.17 10.6-7.21 4.68-13.1 6.24-21.5 4.7-4.11-1.06-7.03-2.62-10.3-5.31v-2h-2v-2h-2c-0.66-1.98-1.32-3.96-2-6 0.33-0.33 0.66-0.66 1-1z" fill="#000001"/>
<path transform="translate(1057,170)" d="m0 0c0.66 0.33 1.32 0.66 2 1-2.83 5.86-5.07 9.85-11 13-1.39 0.835-1.39 0.835-2.81 1.69-5.87 2.42-11.9 3.07-18.1 1.24-5.21-2.27-10.8-5.36-13.5-10.5-0.648-2.46-0.648-2.46 0.352-5.46 0.495 0.887 0.99 1.77 1.5 2.69 3.27 4.81 7.51 7.64 13.2 8.91 9.37 1.12 15.7-0.604 23.4-6 2.31-1.92 3.71-3.85 4.92-6.6z" fill="#000001"/>
<path transform="translate(569,163)" d="m0 0c1 3 1 3-0.125 5.81-2.05 3.48-4.13 6.23-6.88 9.19h-2c-0.26 0.603-0.521 1.21-0.789 1.83-2.12 3.81-5.22 5.57-9.21 7.17-6.41 1.17-11.6 0.769-17.1-2.75-2.9-2.11-4.59-3.88-5.88-7.25v-3c-0.66-0.33-1.32-0.66-2-1 0.66-0.99 1.32-1.98 2-3 0.208 0.531 0.415 1.06 0.629 1.61 1.91 4.37 3.69 7.6 8.19 9.77 5.99 1.71 12.7 1.65 18.4-0.812 6.66-3.91 11.8-10.5 14.8-17.6z" fill="#000001"/>
<path transform="translate(1512,171)" d="m0 0c4 4.75 4 4.75 4 7 1.66 0.694 3.33 1.35 5 2 0.643 0.276 1.29 0.552 1.95 0.836 6.86 2.69 13.3 2.82 20.3 0.371 4.48-2.09 8.07-4.91 11.7-8.21-1.35 5.59-5.58 8.69-10 12-4.99 2.94-10.7 3.59-16.4 2.57-6.71-2.03-12.4-5.16-16.1-11.3-0.495-1.09-0.99-2.19-1.5-3.31 0.33-0.66 0.66-1.32 1-2z" fill="#000001"/>
<path transform="translate(841,159)" d="m0 0c1 3 1 3-0.125 5.69-0.619 1.09-1.24 2.19-1.88 3.31-0.365 0.657-0.73 1.31-1.11 1.99-2.71 4.65-5.48 7.81-9.89 11-0.62 0.467-1.24 0.933-1.88 1.41-4.9 3.44-8.15 4.63-14.1 3.59-3.86-2.39-6.55-4.65-8-9 0.66-0.33 1.32-0.66 2-1 0.639 0.825 1.28 1.65 1.94 2.5 3.6 2.94 5.24 3.21 9.74 2.9 8.81-1.53 14.1-7.5 19.3-14.4 1.58-2.63 2.79-5.17 4-8z" fill="#000001"/>
<path transform="translate(698,120)" d="m0 0c2.05 1.88 3.41 3.69 5 6-0.495-0.268-0.99-0.536-1.5-0.812-0.825-0.392-1.65-0.784-2.5-1.19-1.09-0.536-2.19-1.07-3.31-1.62-7.34-2.64-15.7-2.71-23.1-0.238-5.95 2.85-10.9 6.32-15.6 10.9 3.17-7.26 9.84-11.3 16.9-14.3 8-2.8 16.5-2.75 24.1 1.27z" fill="#000001"/>
<path transform="translate(1187,173)" d="m0 0c1.5 1.38 1.5 1.38 3 3v2c1.66 0.683 3.33 1.35 5 2 0.846 0.351 1.69 0.701 2.56 1.06 4.25 1.16 8.34 1.37 12.7 1.59 2.71 0.344 2.71 0.344 5.71 2.34v3c-19.7-1.59-19.7-1.59-26-7-1.52-1.94-2.74-3.87-4-6 0.33-0.66 0.66-1.32 1-2z" fill="#000001"/>
<path transform="translate(964,129)" d="m0 0c0 3 0 3-2.44 5.5-6.34 4.93-13.7 6.3-21.6 5.5-2.67-0.448-5.3-0.968-7.93-1.56-2.04-0.507-2.04-0.507-4.07-0.438 0.33-0.99 0.66-1.98 1-3 0.606 0.0722 1.21 0.144 1.84 0.219 12.5 1.39 22.7 1.58 33.2-6.22z" fill="#000001"/>
<path transform="translate(755 119)" d="m0 0c2.06 1.69 2.06 1.69 3.06 4.69-0.541-0.324-1.08-0.647-1.64-0.98-5.64-2.44-13.1-1.76-18.8 0.23-3.3 1.62-5.85 3.29-8.56 5.75 1.52-4.11 4.4-6.66 8-9 5.93-2.3 12-3.35 17.9-0.688z" fill="#000001"/>
<path transform="translate(1154,121)" d="m0 0v2c-1.11-0.464-1.11-0.464-2.25-0.938-6.86-2.65-12.6-1.96-19.8-0.0625-3.01 1.69-5.52 3.61-8 6 2.3-5.11 5.86-8.02 10.9-10.3 7.76-1.71 12.4-0.679 19.1 3.31z" fill="#000001"/>
<path transform="translate(1216,117)" d="m0 0c2.43 2.02 2.43 2.02 4 4h-25v-2c6.66-2.54 14-3.01 21-2z" fill="#000001"/>
<path transform="translate(1463,118)" d="m0 0c3.12 2 3.12 2 5 4-0.33 0.66-0.66 1.32-1 2-0.99-0.66-1.98-1.32-3-2-2.8-0.318-2.8-0.318-5.88-0.25-1.03-0.00516-2.06-0.0103-3.12-0.0156-5.06 0.447-8.76 2.6-13 5.27 1.5-4.68 4.87-5.86 9-8 3.69-1.85 7.97-1.49 12-1z" fill="#000001"/>
<path transform="translate(1111,118)" d="m0 0c3.19 2 3.19 2 5 4-0.33 0.66-0.66 1.32-1 2-0.99-0.66-1.98-1.32-3-2-8.02-0.944-14.2-0.296-21 4 1.57-3.59 3.27-5.37 6.8-7.23 4.33-1.51 8.7-1.49 13.2-0.766z" fill="#000001"/>
<path transform="translate(1279 117)" d="m0 0c4.02 0.309 6.64 1.48 10.2 3.25v2c-0.548-0.158-1.1-0.317-1.66-0.48-2.62-0.583-5.08-0.732-7.76-0.836-1.54-0.0628-1.54-0.0628-3.11-0.127-1.06-0.0393-2.13-0.0786-3.22-0.119-1.08-0.0432-2.16-0.0864-3.27-0.131-2.66-0.106-5.32-0.208-7.98-0.307 3.97-3.97 11.4-2.89 16.8-3.25z" fill="#000001"/>
<path transform="translate(803,119)" d="m0 0c2.94 2.56 2.94 2.56 5 5-0.33 0.66-0.66 1.32-1 2-0.66-1.32-1.32-2.64-2-4-8.2-0.462-15.1 0.377-22 5 1.29-4.01 3.73-5.33 7.27-7.18 4.51-2.14 7.82-2.03 12.7-0.82z" fill="#000001"/>
<path transform="translate(637,118)" d="m0 0c2.33 1.53 2.33 1.53 4 3-0.33 0.66-0.66 1.32-1 2-1.02-0.495-1.02-0.495-2.06-1-6.43-2.19-11-0.857-16.9 1.93-2.23 1.14-2.23 1.14-5.02 3.07 3.67-8.55 12.4-10.6 21-9z" fill="#000001"/>
<path transform="translate(1194,103)" d="m0 0c-0.33 0.99-0.66 1.98-1 3h-3.88c-6.45 0.647-10.5 4.77-15.1 9-0.66-0.33-1.32-0.66-2-1 1.53-1.45 3.08-2.88 4.62-4.31 0.859-0.801 1.72-1.6 2.6-2.43 5-4.08 8.39-5.93 14.8-4.26z" fill="#000001"/>
<path transform="translate(589,177)" d="m0 0c0.636 0.597 0.636 0.597 1.29 1.21 3.06 2.76 5.7 4.98 9.59 6.42 1.03 0.454 2.06 0.907 3.12 1.38 0.695 2.09 0.695 2.09 1 4-7.6-1.65-11.4-4.79-16-11 0.33-0.66 0.66-1.32 1-2z" fill="#000001"/>
<path transform="translate(865,178)" d="m0 0c1.03 0.784 2.06 1.57 3.12 2.38 3.16 2.27 6.09 3.61 9.88 4.62 0.33 1.98 0.66 3.96 1 6-1.67-1-3.33-2-5-3-0.825-0.454-1.65-0.907-2.5-1.38-2.9-1.89-5.13-4.12-7.5-6.62 0.33-0.66 0.66-1.32 1-2z" fill="#000001"/>
<path transform="translate(866,118)" d="m0 0c2.38 1.5 2.38 1.5 4 3-0.33 0.66-0.66 1.32-1 2-0.99-0.33-1.98-0.66-3-1-5.83-0.457-9.72 0.775-15 3 1.05-3.38 2.05-4.03 5.25-5.75 3.64-1.21 5.97-1.75 9.75-1.25z" fill="#000001"/>
<path transform="translate(1413,173)" d="m0 0c0.272 0.587 0.544 1.17 0.824 1.78 2.92 5.51 6.86 9.09 12.2 12.2v3c-5-1.62-9.32-4.24-12.1-8.78-1.52-3.28-2.08-4.72-0.918-8.22z" fill="#000001"/>
<path transform="translate(703,177)" d="m0 0c0.66 0.722 1.32 1.44 2 2.19 3.24 3.27 7.04 5.51 11 7.81-0.33 0.99-0.66 1.98-1 3-5.14-2.23-8.88-4.13-12-9-0.33-0.99-0.66-1.98-1-3 0.33-0.33 0.66-0.66 1-1z" fill="#000001"/>
<path transform="translate(1465,177)" d="m0 0c0.495 0.701 0.99 1.4 1.5 2.12 2.69 3.1 5.51 5.16 8.89 7.45 0.531 0.472 1.06 0.944 1.61 1.43v3c-4.42-2.04-8.55-4.55-12-8-0.125-3.12-0.125-3.12 0-6z" fill="#000001"/>
<path transform="translate(1245,120)" d="m0 0v3c-0.58 0.0374-1.16 0.0748-1.76 0.113-5.06 0.426-8.78 1.26-13.2 3.89 0.987-2.57 1.54-3.76 4.02-5.05 1.16-0.348 1.16-0.348 2.35-0.703 0.771-0.242 1.54-0.485 2.34-0.734 2.29-0.516 2.29-0.516 6.29-0.516z" fill="#000001"/>
<path transform="translate(917,178)" d="m0 0 4 5c0.763 0.846 1.53 1.69 2.31 2.56 0.835 1.21 0.835 1.21 1.69 2.44-0.395 2.15-0.395 2.15-1 4-1.15-1.43-2.3-2.87-3.44-4.31-0.638-0.801-1.28-1.6-1.93-2.43-1.63-2.26-1.63-2.26-2.63-5.26 0.33-0.66 0.66-1.32 1-2z" fill="#000001"/>
<path transform="translate(0,196)" d="m0 0h1v30h-1v-30z" fill="#FCFDFF"/>
<path transform="translate(176,100)" d="m0 0c3.48 0 5.52 0.59 8.18 2.85 1.99 2.01 3.93 4.05 5.82 6.15-0.33 0.66-0.66 1.32-1 2-0.519-0.471-1.04-0.941-1.57-1.43-3.66-3.27-7.13-6.16-11.4-8.57v-1z" fill="#000001"/>
<path transform="translate(152,101)" d="m0 0c-0.592 0.387-1.18 0.773-1.79 1.17-4.22 2.78-8.33 5.57-12.2 8.83 1.6-4.16 4.61-7.2 8-10 3-1 3-1 6 0z" fill="#121213"/>
<path transform="translate(0,168)" d="m0 0h1v20h-1v-20z" fill="#FCFDFF"/>
<path transform="translate(1493,171)" d="m0 0h1v8h-1v-8z" fill="#FCFDFF"/>
<path transform="translate(1260,220)" d="m0 0h1v5h-1v-5z"/>
<path transform="translate(1258,203)" d="m0 0h1v5h-1v-5z"/>
<path transform="translate(846,183)" d="m0 0h1v5h-1v-5z" fill="#FCFDFF"/>
<path transform="translate(1259,212)" d="m0 0 1 4z"/>
<path transform="translate(916,174)" d="m0 0 1 4z"/>
</svg>
